<?xml version="1.0" standalone="no"?>
<!DOCTYPE svg PUBLIC "-//W3C//DTD SVG 20010904//EN"
 "http://www.w3.org/TR/2001/REC-SVG-20010904/DTD/svg10.dtd">
<svg version="1.0" xmlns="http://www.w3.org/2000/svg"
 width="425.000000pt" height="720.000000pt" viewBox="0 0 425.000000 720.000000"
 preserveAspectRatio="xMidYMid meet">
<metadata>
Created by potrace 1.16, written by Peter Selinger 2001-2019
</metadata>
<g transform="translate(0.000000,720.000000) scale(0.100000,-0.100000)"
fill="#000000" stroke="none">
<path d="M2397 7123 c-11 -156 -48 -579 -53 -611 -3 -18 -9 -30 -13 -28 -24
15 -276 -50 -321 -83 -14 -10 -36 -22 -50 -26 -25 -8 -32 -13 -92 -72 -24 -24
-47 -37 -65 -38 -26 0 -28 -3 -25 -35 1 -19 7 -39 12 -44 6 -6 10 -17 10 -26
0 -8 11 -32 25 -52 31 -45 31 -65 4 -129 l-22 -50 22 -30 c18 -24 22 -39 17
-72 -13 -105 -18 -117 -46 -132 -20 -10 -30 -25 -35 -51 -6 -36 -1 -46 30 -57
6 -2 4 -14 -5 -31 -11 -22 -12 -29 -1 -35 10 -7 10 -16 1 -47 -19 -63 -11 -97
26 -108 l31 -9 -33 -54 c-22 -37 -35 -74 -39 -111 -8 -70 -23 -122 -36 -122
-5 0 -8 10 -6 23 2 12 2 16 0 10 -3 -7 -8 -13 -13 -13 -5 0 -7 7 -4 15 4 9 0
15 -10 15 -11 0 -16 10 -17 33 -2 31 -2 31 -6 4 -3 -16 1 -34 7 -42 8 -10 8
-19 0 -34 -14 -28 -18 -26 -17 7 2 59 -3 112 -12 112 -4 0 -6 -11 -4 -24 3
-13 1 -26 -4 -29 -10 -6 -12 4 -14 68 -1 44 -21 81 -38 70 -21 -12 -11 16 14
39 13 13 22 26 18 29 -12 13 -44 7 -49 -8 -4 -8 -12 -15 -20 -15 -7 0 -16 -11
-20 -25 -5 -21 -9 -23 -25 -14 -13 6 -19 6 -19 -1 0 -5 5 -10 10 -10 6 0 10
-9 10 -20 0 -13 14 -26 45 -40 36 -16 45 -26 45 -46 0 -17 -4 -23 -12 -18 -7
5 -9 2 -5 -9 5 -14 -1 -15 -42 -10 -60 7 -190 -21 -224 -48 -36 -27 -67 -25
-67 5 0 13 7 27 16 30 21 8 40 -4 23 -15 -7 -4 -10 -11 -6 -15 3 -4 13 -1 22
6 13 11 13 15 -5 30 -26 23 -26 50 0 50 11 0 20 3 21 8 4 41 3 72 -3 72 -5 0
-8 -4 -8 -8 0 -5 -7 -17 -15 -28 -14 -17 -15 35 -9 501 4 286 4 517 0 514 -4
-4 -9 -103 -11 -220 -6 -252 -8 -285 -17 -295 -5 -4 -8 -1 -8 7 -1 10 -4 9
-15 -5 -7 -10 -18 -15 -24 -11 -7 3 -11 -2 -11 -14 0 -27 -17 -27 -25 -1 -3
11 -11 20 -17 20 -5 0 -12 -9 -15 -20 -3 -11 -14 -20 -24 -20 -11 0 -22 -7
-25 -15 -8 -20 -31 -19 -43 3 -8 12 -13 14 -19 5 -14 -22 -64 42 -60 77 1 18
-4 38 -15 50 -9 11 -17 23 -17 26 0 3 -7 12 -15 20 -8 9 -15 29 -15 45 0 16
-5 29 -11 29 -12 0 -6 110 8 146 6 15 7 15 15 -5 10 -29 31 -16 24 14 -8 31
37 85 70 85 18 0 24 6 24 20 0 12 11 32 25 46 30 30 30 31 7 37 -9 3 -3 5 15
6 37 1 48 -19 37 -74 -5 -29 -3 -35 11 -35 10 0 23 -16 33 -40 17 -40 32 -52
32 -27 0 21 42 55 47 40 8 -22 23 -14 23 12 0 14 -5 25 -11 25 -5 0 -7 5 -4
10 3 6 1 10 -5 10 -7 0 -4 14 9 35 20 34 20 35 1 45 -10 5 -26 10 -36 10 -12
0 -14 3 -6 13 11 13 6 57 -7 57 -35 -1 -161 -30 -179 -41 -17 -11 -24 -11 -30
-2 -5 7 -46 15 -104 19 -91 6 -96 6 -107 -15 -7 -11 -18 -21 -26 -21 -8 0 -15
-4 -15 -10 0 -11 13 -13 23 -4 11 11 148 14 142 4 -3 -6 -22 -10 -41 -10 -21
0 -33 -4 -29 -10 3 -5 -2 -10 -12 -10 -15 0 -16 -2 -3 -10 8 -5 10 -10 4 -10
-5 0 -15 5 -22 12 -6 6 -26 13 -44 15 -59 7 -201 2 -217 -7 -9 -5 -11 -10 -4
-10 6 0 13 -12 15 -27 3 -25 6 -28 38 -25 19 2 40 11 47 20 12 16 14 15 30 -4
11 -14 27 -21 43 -19 31 3 50 -11 50 -37 0 -15 -5 -18 -20 -13 -11 4 -20 2
-20 -4 0 -6 6 -11 13 -11 19 0 39 -42 35 -71 -1 -13 -9 -24 -17 -24 -8 0 -16
-6 -18 -12 -3 -7 2 -13 11 -13 11 0 16 -9 16 -29 0 -16 6 -36 12 -43 14 -14
18 -72 6 -84 -11 -11 -10 -26 1 -19 5 3 13 0 16 -6 4 -5 13 -8 21 -5 16 6 17
-27 4 -79 -7 -28 -8 -28 -15 -8 -6 20 -8 20 -23 4 -20 -20 -42 -78 -42 -112 0
-13 -5 -31 -10 -39 -8 -13 -10 -12 -10 3 0 13 -9 17 -40 17 l-40 0 0 -54 c0
-67 -11 -77 -33 -31 -15 32 -22 36 -64 35 -5 0 -8 -8 -9 -18 -3 -61 -38 -172
-54 -172 -3 0 -13 15 -22 33 l-16 32 -7 -72 c-4 -40 -11 -73 -16 -73 -16 0
-27 36 -28 94 0 32 -2 60 -4 62 -2 2 -7 -97 -10 -221 -3 -124 -11 -233 -16
-242 -8 -14 -11 -9 -12 27 -2 44 -2 44 -8 10 -5 -28 -8 -31 -14 -17 -4 10 -7
31 -8 45 0 24 -1 25 -9 7 -7 -16 -9 -13 -9 18 -1 42 -16 50 -25 12 -7 -28 -38
-48 -69 -43 -20 3 -21 8 -22 101 0 95 -1 98 -29 122 -35 30 -83 40 -133 28
l-38 -9 -3 -180 -2 -180 30 -34 30 -34 23 22 c13 12 31 22 40 22 17 0 51 53
40 64 -4 3 -2 6 4 6 7 0 9 15 6 40 -5 34 -3 40 12 40 15 0 17 -6 12 -40 -5
-37 -4 -40 11 -28 13 11 15 11 10 -3 -4 -10 2 -26 13 -37 26 -29 24 -32 -15
-32 -52 0 -105 -26 -117 -58 -5 -15 -14 -36 -19 -47 -5 -11 -11 -29 -12 -40
-4 -19 -4 -19 -16 3 -7 12 -15 37 -16 55 -10 93 -36 87 -36 -8 0 -64 2 -75 18
-76 9 0 48 -2 87 -2 61 -2 70 -4 73 -22 6 -33 19 -38 40 -17 13 13 18 28 15
41 -4 15 9 35 51 76 31 32 61 53 67 49 8 -4 7 -9 -2 -15 -12 -7 -12 -9 0 -9
11 0 11 -3 1 -15 -10 -12 -10 -15 2 -15 19 0 7 -148 -13 -161 -8 -5 -9 -9 -2
-9 6 0 9 -9 6 -20 -6 -24 -19 -26 -27 -5 -4 12 -15 15 -38 11 -18 -3 -68 -8
-111 -11 -67 -6 -81 -11 -102 -33 -13 -14 -21 -30 -18 -35 3 -5 8 -5 12 1 3 5
57 13 119 17 99 6 112 5 112 -9 0 -9 3 -16 8 -16 12 1 42 27 37 32 -4 4 23 3
45 -1 3 -1 -2 -6 -10 -11 -10 -6 -3 -8 22 -3 30 4 38 2 38 -9 0 -11 13 -15 53
-14 105 0 148 -4 142 -14 -4 -6 14 -11 47 -12 l53 -1 -45 -7 -45 -7 40 -2 c64
-3 198 -29 204 -40 4 -6 27 -13 51 -16 63 -9 110 -25 110 -37 0 -5 6 -8 13 -5
6 2 11 14 9 25 -4 25 16 30 24 7 4 -8 10 -13 14 -10 5 3 6 -3 3 -14 -3 -10 0
-22 6 -25 15 -10 14 -46 -1 -46 -9 0 -9 -3 1 -9 21 -13 7 -37 -33 -56 -23 -11
-36 -24 -36 -36 0 -11 -7 -19 -15 -19 -8 0 -15 -7 -15 -15 0 -9 -8 -19 -17
-22 -24 -9 -33 -23 -33 -55 0 -19 -5 -28 -16 -28 -9 0 -30 -15 -46 -32 -21
-23 -38 -32 -54 -30 -30 4 -31 -6 -1 -18 21 -8 20 -9 -8 -10 -22 0 -26 -3 -16
-9 11 -7 6 -11 -20 -14 -19 -2 8 -5 60 -5 52 -1 92 -4 90 -6 -2 -2 -114 -9
-249 -15 -135 -6 -273 -14 -307 -17 l-63 -6 0 -53 0 -53 -73 4 c-39 2 -114 6
-165 8 l-92 5 0 -445 0 -444 41 0 c29 0 40 4 36 13 -4 10 12 11 75 5 44 -4 84
-5 89 -2 5 3 9 -5 9 -18 1 -22 1 -23 15 -4 13 17 30 20 118 23 56 1 120 -2
142 -7 22 -5 57 -12 78 -15 21 -3 35 -10 32 -16 -4 -5 -1 -9 4 -9 6 0 11 4 11
9 0 22 35 21 54 -3 19 -22 31 -26 116 -31 93 -5 117 -8 171 -21 16 -4 31 -1
39 8 15 15 91 12 102 -5 9 -15 50 21 42 37 -3 6 1 3 9 -7 11 -14 16 -15 20 -5
4 10 6 10 6 1 2 -22 42 -14 63 12 11 14 24 23 29 20 5 -4 9 -2 9 2 0 12 79 45
91 38 5 -4 9 -1 9 4 0 18 29 12 40 -8 5 -11 10 -30 10 -43 0 -14 11 -53 25
-88 17 -43 25 -86 26 -129 1 -55 3 -60 9 -31 7 31 7 32 9 8 0 -16 6 -28 12
-28 7 0 9 9 5 23 -13 48 -28 161 -23 183 2 14 -1 24 -7 24 -6 0 -3 7 6 14 10
7 18 19 18 27 0 8 6 3 13 -10 6 -14 19 -26 27 -28 11 -3 11 -2 3 4 -7 5 -11
24 -11 43 1 19 -2 56 -7 82 -8 47 10 138 27 138 10 0 10 -1 -5 -46 -14 -43
-14 -53 -4 -105 8 -42 50 -84 92 -93 17 -4 39 -9 50 -12 11 -3 2 5 -19 18 -22
13 -39 27 -37 31 1 4 -4 18 -12 30 -18 29 -28 67 -16 67 4 0 5 7 2 17 -4 11
-3 14 6 9 6 -4 18 -2 26 4 11 9 27 9 65 1 59 -13 126 -13 155 -2 16 7 9 10
-30 15 -85 12 -83 14 20 15 232 4 503 32 537 56 13 8 31 15 42 15 30 0 126 52
151 82 47 56 76 198 73 369 -1 99 2 133 15 159 10 18 17 38 17 43 0 6 7 19 16
28 12 13 16 35 15 74 0 31 3 55 9 55 6 0 10 4 10 9 0 6 13 29 29 53 15 24 36
66 46 93 9 28 24 64 31 82 8 17 14 36 14 42 0 6 2 11 5 11 3 0 71 -27 152 -60
82 -34 162 -66 178 -72 17 -6 35 -15 40 -19 6 -4 39 -18 75 -32 36 -13 87 -34
115 -47 59 -27 188 -83 265 -115 149 -62 231 -108 217 -122 -9 -8 -138 16
-155 30 -20 16 -27 0 -12 -28 7 -14 11 -28 7 -31 -3 -4 0 -19 8 -35 16 -31 22
-219 6 -219 -9 0 -22 -110 -27 -220 -1 -36 -7 -105 -13 -155 -6 -49 -15 -138
-19 -197 -5 -59 -14 -113 -19 -120 -7 -8 -8 -31 -4 -60 5 -27 4 -48 -1 -48 -4
0 -8 -28 -7 -62 1 -35 -4 -94 -10 -133 -6 -38 -11 -97 -11 -130 0 -42 -3 -56
-10 -45 -8 12 -10 11 -10 -7 0 -13 5 -23 10 -23 6 0 10 -7 10 -16 0 -8 -4 -12
-10 -9 -5 3 -11 -2 -11 -12 -2 -27 -7 -55 -14 -83 -4 -14 -8 -54 -10 -90 -6
-97 -15 -150 -27 -150 -6 0 -8 -11 -6 -25 5 -22 2 -24 -18 -19 -23 6 -23 5
-10 -21 8 -16 21 -32 28 -37 10 -6 7 -13 -12 -29 -25 -21 -25 -21 -4 -38 15
-12 23 -37 33 -111 7 -52 12 -118 11 -147 0 -34 5 -57 15 -67 8 -8 14 -19 13
-23 -1 -4 4 -32 11 -62 8 -30 11 -74 8 -102 -3 -27 -1 -63 5 -80 8 -22 7 -34
-1 -42 -8 -8 -11 -8 -11 2 0 7 -5 9 -10 6 -6 -4 -7 -11 -4 -17 4 -6 7 -24 6
-39 0 -16 2 -29 6 -29 11 0 12 -194 0 -201 -5 -3 -13 -35 -18 -70 -4 -35 -19
-101 -34 -147 -14 -46 -26 -90 -26 -98 0 -21 -31 -117 -41 -128 -5 -6 -9 -21
-9 -34 0 -13 -10 -42 -22 -63 -18 -32 -19 -41 -8 -54 11 -13 10 -18 -4 -33 -9
-10 -16 -24 -16 -31 0 -17 -42 -71 -51 -65 -10 6 -20 -12 -24 -42 -4 -37 -12
-41 -91 -47 l-72 -6 -6 31 c-3 17 -6 38 -6 47 0 22 46 41 94 40 l41 -2 -40 -6
c-30 -5 -36 -8 -22 -14 10 -4 29 -7 42 -7 13 0 27 -4 30 -10 11 -18 27 -11 22
10 -3 11 0 20 6 21 7 0 3 4 -8 9 -11 5 -54 9 -97 9 l-76 1 -5 -47 c-3 -27 -9
-63 -12 -81 -14 -63 -26 -61 533 -62 l502 0 -1 3378 c-1 1857 -4 3364 -5 3347
-10 -86 -35 -318 -49 -450 -9 -82 -27 -244 -40 -360 -13 -115 -31 -277 -40
-360 -9 -82 -20 -188 -25 -235 -18 -161 -64 -643 -85 -880 -21 -244 -47 -434
-59 -442 -7 -5 -7 -8 2 -8 6 0 12 -5 12 -10 0 -6 -3 -9 -7 -9 -22 4 -25 -3 -7
-16 18 -15 17 -16 -16 -9 -35 6 -295 101 -425 154 -38 16 -151 60 -250 99
-215 84 -344 136 -351 144 -3 3 -1 21 4 39 15 48 23 170 12 163 -6 -4 -10 13
-10 42 0 35 3 44 10 33 8 -12 10 -11 10 7 0 21 -13 25 -39 9 -8 -5 -16 -3 -22
5 -13 21 -11 24 16 39 14 7 25 22 25 32 0 15 -3 17 -19 8 -11 -5 -32 -9 -48
-9 -23 2 -24 2 -5 6 25 5 29 21 8 29 -18 7 -40 59 -31 74 4 6 13 9 20 6 7 -2
22 4 34 15 11 11 24 18 28 17 5 -2 10 8 12 22 3 24 2 24 -17 7 -10 -10 -32
-17 -48 -16 -16 1 -36 -1 -45 -5 -10 -4 -20 -3 -24 3 -3 6 2 11 13 11 12 0 22
9 25 23 2 12 8 30 12 40 4 10 3 17 -4 17 -6 0 -11 -9 -11 -20 0 -27 -19 -25
-29 2 -7 19 -4 25 18 36 38 18 91 59 85 65 -3 3 -21 1 -41 -5 -48 -13 -60 -6
-73 41 -6 23 -16 41 -22 41 -7 0 -6 5 2 15 11 13 9 20 -9 38 -11 13 -21 29
-21 35 0 14 68 44 81 36 5 -3 9 2 9 11 0 19 23 45 39 45 6 0 11 -6 11 -12 0
-9 4 -8 10 2 8 12 10 12 10 1 0 -8 3 -12 6 -8 9 9 -14 72 -37 100 -16 21 -25
24 -59 20 -35 -5 -40 -3 -40 15 0 11 -6 23 -12 25 -7 3 -2 6 12 7 24 1 25 1 5
16 -17 13 -20 27 -20 102 l0 87 -42 3 c-49 4 -51 9 -24 68 10 23 24 65 30 95
7 29 21 69 31 87 35 58 71 252 48 252 -5 0 -11 8 -15 18 -3 9 -15 29 -25 44
-14 20 -17 37 -13 62 6 32 4 37 -29 58 -44 28 -46 43 -5 34 21 -4 29 -2 27 6
-5 14 -63 36 -98 37 -15 1 -30 5 -35 10 -15 14 -126 51 -155 51 -59 1 -59 -5
-28 404 l12 159 160 78 161 77 -166 1 -166 1 -6 -77z m-425 -1123 c18 -11 40
-20 49 -20 17 0 59 -52 59 -73 0 -20 36 -51 45 -38 3 6 15 11 26 11 10 0 19 5
19 11 0 6 9 8 20 4 14 -5 20 -2 20 9 0 19 5 20 30 6 13 -7 24 -5 43 10 57 45
131 6 122 -64 -2 -21 3 -43 16 -62 10 -16 19 -35 19 -42 0 -7 18 -37 40 -67
l39 -53 -67 -40 c-82 -49 -185 -82 -366 -118 -37 -7 -73 -17 -80 -22 -10 -9
-78 -24 -92 -22 -4 1 -10 -2 -13 -7 -11 -15 -51 -33 -51 -23 0 5 -6 10 -14 10
-29 0 -27 21 4 50 29 27 31 33 29 94 -1 36 -5 64 -8 61 -14 -8 -3 102 13 130
9 17 16 39 16 51 0 11 5 25 12 32 9 9 9 12 -2 12 -13 0 -13 2 0 10 10 6 11 10
3 10 -7 0 -13 9 -13 20 0 24 15 27 24 4 3 -8 10 -12 16 -9 16 10 12 22 -9 28
-14 3 -17 11 -14 30 3 14 -3 36 -13 52 l-18 28 27 -5 c15 -3 27 -1 27 3 0 13
6 11 42 -11z m559 -920 c10 -6 19 -17 19 -25 0 -8 7 -15 14 -15 21 0 75 -72
58 -78 -6 -2 -12 -8 -12 -13 0 -6 8 -5 20 1 17 9 20 8 20 -10 0 -12 -4 -19 -9
-15 -5 3 -12 1 -16 -4 -3 -5 3 -14 12 -20 14 -8 15 -12 6 -22 -10 -10 -18 -8
-38 11 -14 13 -25 27 -25 31 0 5 -20 28 -45 52 -25 25 -45 54 -45 66 0 12 -6
21 -15 21 -16 0 -20 12 -8 23 10 10 42 8 64 -3z m-176 -270 c3 -10 25 -39 49
-64 31 -31 45 -56 48 -80 4 -34 3 -35 -27 -31 -16 2 -47 4 -67 4 -28 1 -38 5
-38 17 0 8 -14 27 -30 41 -30 25 -30 26 -14 50 13 21 14 27 3 34 -11 6 -10 11
3 26 22 24 66 26 73 3z m-1508 -204 c3 -3 -5 -13 -16 -23 -12 -9 -21 -23 -21
-30 0 -7 -15 -15 -32 -18 -45 -7 -228 -2 -228 7 0 4 51 9 113 11 l112 3 -129
2 c-81 1 -142 -3 -163 -10 -44 -16 -50 -6 -16 28 27 27 33 28 153 34 127 5
219 4 227 -4z"/>
<path d="M1870 1434 c0 -41 -57 -149 -78 -150 -67 -4 -65 -3 -52 -19 7 -8 16
-13 20 -10 4 3 10 -2 14 -10 3 -8 2 -15 -3 -15 -4 0 -20 -11 -35 -25 -15 -14
-39 -27 -54 -30 -15 -3 -43 -10 -63 -15 -20 -6 -73 -10 -119 -10 -81 0 -82 0
-75 -22 3 -13 8 -34 10 -48 15 -100 30 -151 49 -163 30 -20 100 -35 133 -30
19 3 24 2 15 -5 -9 -6 8 -11 55 -16 53 -5 78 -13 113 -38 25 -18 48 -38 53
-45 4 -7 24 -15 45 -19 20 -4 40 -12 45 -18 5 -7 12 -4 23 9 14 18 14 14 8
-47 -4 -41 -3 -68 3 -68 5 0 19 -9 30 -19 21 -20 21 -20 33 10 12 29 9 180 -6
328 -3 29 -3 73 1 98 5 36 9 42 20 33 12 -10 16 -5 21 29 4 22 10 38 15 35 14
-9 10 18 -10 63 -11 23 -53 77 -94 120 -41 43 -84 89 -96 103 l-20 25 -1 -31z"/>
<path d="M1894 395 c-21 -19 -44 -35 -50 -35 -5 0 -23 -14 -40 -31 -16 -17
-38 -35 -49 -40 -51 -23 -110 -67 -113 -83 -2 -9 14 -36 36 -60 22 -24 43 -54
47 -67 9 -28 39 -59 57 -59 10 0 10 -2 -1 -9 -7 -5 49 -9 135 -9 142 0 149 0
177 24 16 13 33 24 38 24 22 0 6 35 -37 78 -42 43 -110 132 -101 132 2 0 19
-7 37 -17 32 -16 34 -15 51 5 14 18 18 19 23 6 10 -26 7 -36 -9 -30 -26 10
-16 -13 13 -28 15 -8 36 -23 47 -33 30 -28 93 -58 102 -49 8 7 -56 72 -110
111 -15 11 -27 24 -27 28 0 16 -37 56 -45 49 -5 -4 -5 -1 -1 6 6 11 14 8 35
-10 14 -13 40 -33 56 -44 17 -11 54 -37 83 -58 34 -24 60 -35 70 -31 17 6 -1
27 -97 108 -22 18 -31 33 -27 43 7 19 -30 53 -57 54 -16 0 -14 -6 13 -40 18
-22 28 -45 24 -51 -5 -9 -10 -8 -18 2 -6 8 -30 27 -53 43 -24 16 -43 33 -43
38 0 5 -20 17 -44 28 -24 10 -47 23 -50 29 -12 19 -31 12 -72 -24z m-35 -162
c8 8 11 7 11 -6 0 -11 8 -17 23 -17 13 0 32 -8 43 -17 10 -10 36 -29 56 -43
42 -28 55 -50 36 -62 -20 -12 -45 -10 -119 12 -88 26 -131 61 -123 98 10 40
13 42 38 32 15 -5 27 -5 35 3z"/>
</g>
</svg>
