<svg height="480pt" viewBox="-24 0 480 480" width="480pt" xmlns="http://www.w3.org/2000/svg"><path d="m24 424c-8.835938 0-16 7.164062-16 16v32h416v-32c0-8.835938-7.164062-16-16-16zm0 0" fill="#bddbff"/><path d="m312 248-72 24v8h-48v-8l-72-24h-24v112h24l72-24v-8h48v8l72 24h24v-112zm0 0" fill="#bddbff"/><g fill="#3d9ae2"><path d="m408 416h-8v-120c0-101.621094-82.378906-184-184-184s-184 82.378906-184 184v120h-8c-13.253906 0-24 10.746094-24 24v32c0 4.417969 3.582031 8 8 8h416c4.417969 0 8-3.582031 8-8v-32c0-13.253906-10.746094-24-24-24zm-360-120c0-92.785156 75.214844-168 168-168s168 75.214844 168 168v120h-336zm368 168h-400v-24c0-4.417969 3.582031-8 8-8h384c4.417969 0 8 3.582031 8 8zm0 0"/><path d="m336 240h-24c-.859375 0-1.710938.136719-2.527344.40625l-72 24c-3.269531 1.089844-5.472656 4.148438-5.472656 7.59375h-32c0-3.445312-2.203125-6.503906-5.472656-7.59375l-72-24c-.816406-.269531-1.667969-.40625-2.527344-.40625h-24c-4.417969 0-8 3.582031-8 8v112c0 4.417969 3.582031 8 8 8h24c.859375 0 1.710938-.136719 2.527344-.40625l72-24c3.269531-1.089844 5.472656-4.148438 5.472656-7.59375h32c0 3.445312 2.203125 6.503906 5.472656 7.59375l72 24c.816406.269531 1.667969.40625 2.527344.40625h24c4.417969 0 8-3.582031 8-8v-112c0-4.417969-3.582031-8-8-8zm-152 90.230469-65.296875 21.769531h-14.703125v-96h14.703125l65.296875 21.769531zm16-10.230469v-32h32v32zm128 32h-14.703125l-65.296875-21.769531v-52.460938l65.296875-21.769531h14.703125zm0 0"/><path d="m208 0h16v80h-16zm0 0"/><path d="m1.039062 92.347656 11.3125-11.3125 56.570313 56.570313-11.316406 11.3125zm0 0"/><path d="m363.078125 137.613281 56.570313-56.566406 11.3125 11.3125-56.566407 56.570313zm0 0"/></g></svg>