<?xml version="1.0" encoding="iso-8859-1"?>
<!-- Generator: Adobe Illustrator 17.1.0, SVG Export Plug-In . SVG Version: 6.00 Build 0)  -->
<!DOCTYPE svg PUBLIC "-//W3C//DTD SVG 1.1//EN" "http://www.w3.org/Graphics/SVG/1.1/DTD/svg11.dtd">
<svg version="1.1" id="Capa_1" xmlns="http://www.w3.org/2000/svg" xmlns:xlink="http://www.w3.org/1999/xlink" x="0px" y="0px"
	 viewBox="0 0 199.349 199.349" style="enable-background:new 0 0 199.349 199.349;" xml:space="preserve">
<path d="M183.731,128.746c5.918-9.386,9.384-20.461,9.45-32.321c0.174-31.12-23.344-57.51-54.703-61.384
	c-1.424-0.178-2.851,0.267-3.925,1.216c-1.073,0.949-1.689,2.313-1.689,3.746v4.606h-31.273v-5.063c0-2.762-2.238-5-5-5H5
	c-2.762,0-5,2.238-5,5V68.6c0,2.762,2.238,5,5,5h42.252c12.531,0,22.792,10.265,22.874,22.891l0.01,0.75
	c0.604,32.434,26.443,58.923,58.827,60.305c0.899,0.039,1.8,0.058,2.69,0.058c0.002,0,0.003,0,0.005,0
	c11.527,0,22.335-3.208,31.58-8.772c1.07,8.981,8.721,15.971,17.985,15.971c9.994,0,18.125-8.131,18.125-18.125
	C199.349,137.535,192.54,129.974,183.731,128.746z M181.224,154.802c-4.48,0-8.125-3.644-8.125-8.125
	c0-4.48,3.645-8.125,8.125-8.125s8.125,3.645,8.125,8.125C189.349,151.157,185.704,154.802,181.224,154.802z"/>
<g>
</g>
<g>
</g>
<g>
</g>
<g>
</g>
<g>
</g>
<g>
</g>
<g>
</g>
<g>
</g>
<g>
</g>
<g>
</g>
<g>
</g>
<g>
</g>
<g>
</g>
<g>
</g>
<g>
</g>
</svg>
